<svg width="30" height="30" viewBox="0 0 30 30" fill="none" xmlns="http://www.w3.org/2000/svg">
<path d="M18.5609 15.0006L29.7033 3.85821C30.0989 3.46252 30.0989 2.82221 29.7033 2.42666L27.5738 0.296259C27.3842 0.106718 27.1268 0 26.8582 0C26.5895 0 26.3321 0.106718 26.1424 0.296259L15 11.4395L3.85762 0.296259C3.66796 0.106718 3.41059 0 3.14189 0C2.87325 0 2.61582 0.106718 2.42622 0.296259L0.296745 2.42666C-0.0989149 2.82221 -0.0989149 3.46252 0.296745 3.85821L11.4392 15.0007L0.297852 26.1418C-0.0976127 26.5375 -0.0976127 27.1778 0.297852 27.5733L2.42746 29.7037C2.61699 29.8933 2.87443 30 3.14312 30C3.41182 30 3.6692 29.8933 3.85892 29.7037L15 18.5618L26.1411 29.7037C26.3307 29.8933 26.5881 30 26.8568 30C27.1256 30 27.3829 29.8933 27.5725 29.7037L29.7021 27.5733C30.0975 27.1778 30.0975 26.5375 29.7021 26.1418L18.5609 15.0006Z" fill="#675B4A"/>
</svg>
