<svg width="40" height="40" viewBox="0 0 40 40" fill="none" xmlns="http://www.w3.org/2000/svg">
<g clip-path="url(#clip0_570_892)">
<path d="M20 39.6875C30.8563 39.6875 39.6875 30.8563 39.6875 20C39.6875 9.14375 30.8563 0.3125 20 0.3125C9.14375 0.3125 0.3125 9.14375 0.3125 20C0.3125 30.8563 9.14375 39.6875 20 39.6875Z" fill="white"/>
<path d="M20 0.625C9.31625 0.625 0.625 9.31625 0.625 20C0.625 30.6838 9.31625 39.375 20 39.375C30.6838 39.375 39.375 30.6838 39.375 20C39.375 9.31625 30.6838 0.625 20 0.625ZM20 0C31.0462 0 40 8.95375 40 20C40 31.0462 31.0462 40 20 40C8.95375 40 0 31.0462 0 20C0 8.95375 8.95375 0 20 0Z" fill="#675B4A"/>
</g>
<path d="M18.0723 22.9082C20.0381 21.7949 21.3682 19.6797 21.3682 17.2598C21.3682 13.6768 18.4619 10.7705 14.8789 10.7705C11.2959 10.7705 8.38965 13.6768 8.38965 17.2598C8.38965 19.6885 9.72559 21.8008 11.6973 22.917C8.04981 24.1035 5.35742 27.2559 5 31.0557H24.7871C24.4326 27.25 21.7285 24.0889 18.0723 22.9082Z" fill="#675B4A"/>
<path d="M22.4697 17.0928C22.5078 19.5156 21.5117 21.6045 19.5459 22.7178C21.8311 23.5439 23.3867 25.1348 24.5732 27.2324H35C34.6426 23.4238 31.9414 20.1895 28.2881 19.0088C30.2539 17.8955 31.5781 15.8535 31.5781 13.4336C31.5781 9.85059 28.6719 6.94434 25.0889 6.94434C22.2852 6.94434 19.8213 8.63477 18.9102 11.1221C21.0459 12.2822 22.4346 14.5674 22.4697 17.0928Z" fill="#675B4A"/>
<defs>
<clipPath id="clip0_570_892">
<rect width="40" height="40" fill="white" transform="matrix(-1 0 0 1 40 0)"/>
</clipPath>
</defs>
</svg>
