<svg width="50" height="50" viewBox="0 0 50 50" fill="none" xmlns="http://www.w3.org/2000/svg">
<path d="M6.25 15.625H43.75C45.475 15.625 46.875 14.225 46.875 12.5C46.875 10.775 45.475 9.375 43.75 9.375H6.25C4.525 9.375 3.125 10.775 3.125 12.5C3.125 14.225 4.525 15.625 6.25 15.625ZM43.75 21.875H6.25C4.525 21.875 3.125 23.275 3.125 25C3.125 26.725 4.525 28.125 6.25 28.125H43.75C45.475 28.125 46.875 26.725 46.875 25C46.875 23.275 45.475 21.875 43.75 21.875ZM43.75 34.375H6.25C4.525 34.375 3.125 35.775 3.125 37.5C3.125 39.225 4.525 40.625 6.25 40.625H43.75C45.475 40.625 46.875 39.225 46.875 37.5C46.875 35.775 45.475 34.375 43.75 34.375Z" fill="#675B4A"/>
</svg>
