<svg width="30" height="30" viewBox="0 0 30 30" fill="none" xmlns="http://www.w3.org/2000/svg">
<path d="M15.9763 2.96875C15.5001 2.375 14.5001 2.375 14.0238 2.96875L4.02385 15.4688C3.87715 15.6528 3.78531 15.8744 3.75889 16.1083C3.73247 16.3421 3.77253 16.5787 3.87447 16.7908C3.97641 17.0029 4.1361 17.1819 4.33521 17.3074C4.53432 17.4328 4.76477 17.4996 5.0001 17.5H10.0001V26.25C10.0001 26.5815 10.1318 26.8995 10.3662 27.1339C10.6006 27.3683 10.9186 27.5 11.2501 27.5H18.7501C19.0816 27.5 19.3996 27.3683 19.634 27.1339C19.8684 26.8995 20.0001 26.5815 20.0001 26.25V17.5H25.0001C25.2354 17.4996 25.4659 17.4328 25.665 17.3074C25.8641 17.1819 26.0238 17.0029 26.1257 16.7908C26.2277 16.5787 26.2677 16.3421 26.2413 16.1083C26.2149 15.8744 26.1231 15.6528 25.9763 15.4688L15.9763 2.96875ZM18.7501 15H17.5001V25H12.5001V15H7.60135L15.0001 5.75125L22.3988 15H18.7501Z" fill="#419B7B"/>
</svg>
