<svg width="30" height="30" viewBox="0 0 30 30" fill="none" xmlns="http://www.w3.org/2000/svg">
<path d="M19.7499 12.5V12.75H19.9999H24.9995C25.1878 12.7503 25.3722 12.8037 25.5315 12.9041C25.6908 13.0045 25.8186 13.1478 25.9002 13.3175C25.9818 13.4873 26.0138 13.6765 25.9927 13.8637C25.9716 14.0507 25.8981 14.228 25.7808 14.3752C25.7808 14.3753 25.7807 14.3753 25.7807 14.3754L15.7811 26.8748C15.7811 26.8748 15.7811 26.8749 15.7811 26.8749C15.4049 27.3438 14.5949 27.3438 14.2187 26.8749C14.2187 26.8749 14.2187 26.8748 14.2187 26.8748L4.21913 14.3754C4.10174 14.2282 4.02825 14.0508 4.00711 13.8637C3.98597 13.6765 4.01802 13.4873 4.0996 13.3175C4.18117 13.1478 4.30896 13.0045 4.46828 12.9041C4.62761 12.8037 4.81201 12.7503 5.00033 12.75H9.9999H10.2499V12.5L10.2499 3.75C10.2499 3.48478 10.3553 3.23043 10.5428 3.04289C10.7303 2.85536 10.9847 2.75 11.2499 2.75L18.7499 2.75C19.0151 2.75 19.2695 2.85536 19.457 3.04289C19.6445 3.23043 19.7499 3.48478 19.7499 3.75L19.7499 12.5ZM22.3987 14.75L17.7499 14.75L17.7499 5V4.75H17.4999H12.4999H12.2499V5L12.2499 14.75H11.2499H7.60115H7.08101L7.40593 15.1562L14.8047 24.4049L14.9999 24.649L15.1951 24.4049L22.5939 15.1562L22.9188 14.75H22.3987Z" fill="#419B7B" stroke="#419B7B" stroke-width="0.5"/>
</svg>
