<svg width="50" height="50" viewBox="0 0 50 50" fill="none" xmlns="http://www.w3.org/2000/svg">
<g clip-path="url(#clip0_313_1230)">
<path d="M25 49.6094C38.5703 49.6094 49.6094 38.5703 49.6094 25C49.6094 11.4297 38.5703 0.390625 25 0.390625C11.4297 0.390625 0.390625 11.4297 0.390625 25C0.390625 38.5703 11.4297 49.6094 25 49.6094Z" fill="white"/>
<path d="M25 0.78125C11.6453 0.78125 0.78125 11.6453 0.78125 25C0.78125 38.3547 11.6453 49.2188 25 49.2188C38.3547 49.2188 49.2188 38.3547 49.2188 25C49.2188 11.6453 38.3547 0.78125 25 0.78125ZM25 0C38.8078 0 50 11.1922 50 25C50 38.8078 38.8078 50 25 50C11.1922 50 0 38.8078 0 25C0 11.1922 11.1922 0 25 0Z" fill="#675B4A"/>
<path d="M25 23.0594C21.6717 23.0594 18.9735 20.4151 18.9735 17.1531C18.9735 13.8912 21.6717 11.2469 25 11.2469C28.3284 11.2469 31.0266 13.8912 31.0266 17.1531C31.0266 20.4151 28.3284 23.0594 25 23.0594Z" fill="#675B4A"/>
<path d="M14.5907 35.2172C14.5907 29.5828 19.2516 25.0156 25 25.0156C30.7485 25.0156 35.4094 29.5828 35.4094 35.2172H14.5907Z" fill="#675B4A"/>
</g>
<defs>
<clipPath id="clip0_313_1230">
<rect width="50" height="50" fill="white" transform="matrix(-1 0 0 1 50 0)"/>
</clipPath>
</defs>
</svg>
